<svg width="75" height="32" viewBox="0 0 75 32" fill="none" xmlns="http://www.w3.org/2000/svg">
<path d="M0.0228821 18.0057L0 0.476578H4.04251V14.0225H22.3406V18.0513L0.0228821 18.0057Z" fill="white"/>
<path d="M47.5185 0.49939V12.5858C47.5185 13.3384 47.3736 14.0453 47.0914 14.7066C46.8092 15.3756 46.4125 15.9533 45.9168 16.455C45.421 16.9491 44.8413 17.3444 44.1777 17.6256C43.5141 17.9069 42.8048 18.0513 42.0344 18.0513H29.7849C29.0298 18.0513 28.3204 17.9069 27.6568 17.6256C26.9856 17.3444 26.4059 16.9491 25.9025 16.455C25.3991 15.9609 25.0101 15.3756 24.7279 14.7066C24.4457 14.0377 24.3008 13.3308 24.3008 12.5858V0.49939H28.3433V11.1643C28.3433 11.59 28.4196 11.9777 28.5721 12.3274C28.7247 12.677 28.9382 12.9811 29.2128 13.2319C29.4874 13.4828 29.7849 13.6804 30.1281 13.8173C30.4713 13.9541 30.8374 14.0225 31.2264 14.0225H40.5547C40.959 14.0225 41.3403 13.9541 41.6912 13.8173C42.0421 13.6804 42.3548 13.4828 42.6217 13.2319C42.8887 12.9811 43.1023 12.677 43.2472 12.3274C43.3921 11.9777 43.4684 11.59 43.4684 11.1643V0.49939H47.5109H47.5185Z" fill="white"/>
<path d="M54.8637 18.0513H49.2271L57.9451 9.26395L49.2271 0.476586L54.8637 0.453781L60.8893 6.535H63.3377L69.3633 0.453781L75 0.476586L66.2819 9.26395L75 18.0513H69.3633L63.2614 11.9701H60.958L54.8561 18.0513H54.8637Z" fill="white"/>
<path d="M7.97824 31.3107H0V23.4051H7.97824C8.32147 23.4051 8.64182 23.4659 8.93929 23.5951C9.23675 23.7244 9.49608 23.8992 9.72491 24.1196C9.9461 24.3401 10.1215 24.6061 10.2512 24.9026C10.3809 25.199 10.4419 25.5183 10.4419 25.8604V28.8478C10.4419 29.1822 10.3809 29.5015 10.2512 29.8056C10.1215 30.102 9.9461 30.3681 9.72491 30.5885C9.50371 30.809 9.23675 30.9838 8.93929 31.113C8.64182 31.2423 8.32147 31.3031 7.97824 31.3031V31.3107ZM9.42744 28.5057V26.2861C9.42744 26.0048 9.38167 25.754 9.28252 25.5259C9.18336 25.2979 9.06132 25.1002 8.89352 24.9406C8.73335 24.7734 8.54266 24.6517 8.31384 24.5529C8.09265 24.4617 7.84857 24.4161 7.58924 24.4161H1.01444V30.2997H7.58161C7.84094 30.2997 8.07739 30.2541 8.30621 30.1704C8.52741 30.0792 8.72572 29.9576 8.89352 29.798C9.06132 29.6383 9.19099 29.4483 9.29015 29.2279C9.3893 29.0074 9.43507 28.7642 9.43507 28.5057H9.42744Z" fill="white"/>
<path d="M28.2139 31.3107H26.9554L25.3765 29.0302H18.9085V31.3107H17.894V23.4051H25.8723C26.2155 23.4051 26.5359 23.4659 26.8333 23.5951C27.1308 23.7168 27.3901 23.884 27.6189 24.0892C27.8401 24.2945 28.0156 24.5301 28.1452 24.7962C28.2749 25.0622 28.3359 25.3359 28.3359 25.6171V26.7726C28.3359 27.0082 28.2825 27.2439 28.191 27.4871C28.0918 27.7304 27.9622 27.9508 27.7944 28.156C27.6266 28.3613 27.4359 28.5361 27.2223 28.6805C27.0088 28.825 26.7799 28.9162 26.5587 28.9618L28.2139 31.3183V31.3107ZM27.3367 26.5065V25.8832C27.3367 25.6855 27.291 25.4955 27.2071 25.3207C27.1155 25.1458 27.0011 24.9938 26.841 24.857C26.6808 24.7202 26.5054 24.6213 26.2994 24.5377C26.0935 24.4541 25.857 24.4161 25.613 24.4161H18.9237V28.0192H25.613C25.9257 28.0192 26.2003 27.9736 26.4138 27.8748C26.635 27.776 26.8104 27.6619 26.9477 27.5099C27.085 27.3655 27.1842 27.1983 27.2452 27.0158C27.3062 26.8334 27.3367 26.6585 27.3367 26.4989V26.5065Z" fill="white"/>
<path d="M35.8105 23.4127H36.825V31.3183H35.8105V23.4127Z" fill="white"/>
<path d="M50.8366 30.4137H51.012L56.3741 23.4127H57.5639L51.6451 31.3183H50.2035L44.2847 23.4127H45.4745L50.829 30.4137H50.8366Z" fill="white"/>
<path d="M65.0312 23.4127H75.0002V24.4237H66.0457V26.8638H74.7333V27.8748H66.0457V30.3149H75.0002V31.3259H65.0312V23.4203V23.4127Z" fill="white"/>
</svg>
